<svg
        width="341"
        height="226"
        viewBox="0 0 341 226"
        fill="#fff"
        xmlns="http://www.w3.org/2000/svg"
        id="cloud1"
        class="cloud"
      >
        <g filter="url(#filter0_d)">
          <path
            d="M51 153C24.5158 151.796 0.778103 113.666 8.77779 88.7778C11.1694 81.3372 20.1654 73.7878 27.5 71.5556C33.3563 69.7732 45.7409 69.2965 50.4445 74C51.4402 74.9957 52.4181 75.7141 53.5 76.5556C54.3424 77.2108 55.5228 79.5101 56 78.5556C57.2352 76.0852 57.043 70.631 57.5 67.8889C58.7599 60.3294 60.0122 52.663 61.5556 45.1667C64.2148 32.2504 71.2205 22.0232 84 18C93.6498 14.9621 111.73 12.7302 119.5 20.5C122.131 23.1309 123.949 27.8644 125.222 31.2222C127.948 38.4094 126.897 29.4603 127.5 26.4445C129.2 17.943 132.794 11.3714 141.222 8.00001C152.409 3.52528 163.945 -0.749393 173.944 8.00001C177.697 11.2837 180.957 15.3177 183.5 19.5556C185.159 22.3204 185.772 27.5996 188.222 29.7778C188.917 30.3957 189.356 27.7635 189.5 27.3889C190.637 24.4323 191.674 22.1377 193.5 19.5C196.407 15.3017 199.325 12.7523 203.778 10.2222C208.79 7.37457 214.598 7.00001 220.222 7.00001C228.783 7.00001 238.696 5.66109 246.444 10C255.753 15.2125 261.938 22.6547 265.778 32.7778C267.936 38.4672 266.932 38.6982 273.222 35.2222C281.993 30.3751 290.411 27 300.5 27C310.967 27 319.169 34.9764 317.944 46C316.659 57.5724 303.312 64.5886 299.222 75.2222C297.488 79.7308 299.151 80.294 304 82C311.648 84.6911 321.78 87.5024 327.889 93.0556C331.826 96.6348 335.56 103.561 333.444 109C331.261 114.613 324.58 117.559 320 120.778C317.041 122.857 313.29 123.315 310 124.778C305.333 126.852 312.483 131.685 315.056 134C323.059 141.203 330.407 147.926 318.222 155.778C307.385 162.762 295.003 165.389 282 163.944C278.778 163.587 274.533 160.28 274.056 165.056C273.345 172.159 272.478 179.473 268.778 185.778C260.877 199.239 249.904 199.079 236.444 192.222C229.765 188.819 225.057 180.417 221 174.444C218.718 171.084 214.015 166.549 209.944 170.111C204.667 174.729 202.844 182.135 198.5 187.444C194.136 192.779 186.55 198.266 180 200C164.867 204.006 157.503 185.561 152.5 174.556C151.337 171.998 150.407 175.786 149.778 177C146.209 183.891 141.982 190.867 136.556 196.444C128.751 204.465 121.541 211.369 110.556 214.444C101.119 217.087 91.6578 210.093 87.5556 201.889C84.9375 196.653 84.2196 190.445 83 184.778C81.9197 179.757 82.4897 177.778 78.5556 182.222C70.9158 190.852 60.8417 198.759 48.7778 199C40.2931 199.17 29.2556 198.507 24.1667 190.556C21.3048 186.084 20.4241 176.158 24.1111 171.944C27.9823 167.52 33.178 166.452 37.7778 163.444C39.657 162.216 49.496 154.496 48 153"
            stroke="white"
            stroke-width="5"
            stroke-linecap="round"
            stroke-linejoin="round"
          />
        </g>
        <defs>
          <filter
            id="filter0_d"
            x="0.700165"
            y="0.417923"
            width="339.857"
            height="225.095"
            filterUnits="userSpaceOnUse"
            color-interpolation-filters="sRGB"
          >
            <feFlood flood-opacity="0" result="BackgroundImageFix" />
            <feColorMatrix
              in="SourceAlpha"
              type="matrix"
              values="0 0 0 0 0 0 0 0 0 0 0 0 0 0 0 0 0 0 127 0"
            />
            <feOffset dy="4" />
            <feGaussianBlur stdDeviation="2" />
            <feColorMatrix
              type="matrix"
              values="0 0 0 0 0 0 0 0 0 0 0 0 0 0 0 0 0 0 0.25 0"
            />
            <feBlend
              mode="normal"
              in2="BackgroundImageFix"
              result="effect1_dropShadow"
            />
            <feBlend
              mode="normal"
              in="SourceGraphic"
              in2="effect1_dropShadow"
              result="shape"
            />
          </filter>
        </defs>
      </svg>