<svg
        width="333"
        height="218"
        viewBox="0 0 333 218"
        class="cloud"
        id="cloud2"
        fill="#fff"
        xmlns="http://www.w3.org/2000/svg"
      >
        <path
          d="M47 153C20.5158 151.796 -3.2219 113.666 4.77779 88.7778C7.16939 81.3372 16.1654 73.7878 23.5 71.5556C29.3563 69.7732 41.7409 69.2965 46.4445 74C47.4402 74.9957 48.4181 75.7141 49.5 76.5556C50.3424 77.2108 51.5228 79.5101 52 78.5556C53.2352 76.0852 53.043 70.631 53.5 67.8889C54.7599 60.3294 56.0122 52.663 57.5556 45.1667C60.2148 32.2504 67.2205 22.0232 80 18C89.6498 14.9621 107.73 12.7302 115.5 20.5C118.131 23.1309 119.949 27.8644 121.222 31.2222C123.948 38.4094 122.897 29.4603 123.5 26.4445C125.2 17.943 128.794 11.3714 137.222 8.00001C148.409 3.52528 159.945 -0.749393 169.944 8.00001C173.697 11.2837 176.957 15.3177 179.5 19.5556C181.159 22.3204 181.772 27.5996 184.222 29.7778C184.917 30.3957 185.356 27.7635 185.5 27.3889C186.637 24.4323 187.674 22.1377 189.5 19.5C192.407 15.3017 195.325 12.7523 199.778 10.2222C204.79 7.37457 210.598 7.00001 216.222 7.00001C224.783 7.00001 234.696 5.66109 242.444 10C251.753 15.2125 257.938 22.6547 261.778 32.7778C263.936 38.4672 262.932 38.6982 269.222 35.2222C277.993 30.3751 286.411 27 296.5 27C306.967 27 315.169 34.9764 313.944 46C312.659 57.5724 299.312 64.5886 295.222 75.2222C293.488 79.7308 295.151 80.294 300 82C307.648 84.6911 317.78 87.5024 323.889 93.0556C327.826 96.6348 331.56 103.561 329.444 109C327.261 114.613 320.58 117.559 316 120.778C313.041 122.857 309.29 123.315 306 124.778C301.333 126.852 308.483 131.685 311.056 134C319.059 141.203 326.407 147.926 314.222 155.778C303.385 162.762 291.003 165.389 278 163.944C274.778 163.587 270.533 160.28 270.056 165.056C269.345 172.159 268.478 179.473 264.778 185.778C256.877 199.239 245.904 199.079 232.444 192.222C225.765 188.819 221.057 180.417 217 174.444C214.718 171.084 210.015 166.549 205.944 170.111C200.667 174.729 198.844 182.135 194.5 187.444C190.136 192.779 182.55 198.266 176 200C160.867 204.006 153.503 185.561 148.5 174.556C147.337 171.998 146.407 175.786 145.778 177C142.209 183.891 137.982 190.867 132.556 196.444C124.751 204.465 117.541 211.369 106.556 214.444C97.1185 217.087 87.6578 210.093 83.5556 201.889C80.9375 196.653 80.2196 190.445 79 184.778C77.9197 179.757 78.4897 177.778 74.5556 182.222C66.9158 190.852 56.8417 198.759 44.7778 199C36.2931 199.17 25.2556 198.507 20.1667 190.556C17.3048 186.084 16.4241 176.158 20.1111 171.944C23.9823 167.52 29.178 166.452 33.7778 163.444C35.657 162.216 45.496 154.496 44 153"
          stroke="white"
          stroke-width="5"
          stroke-linecap="round"
          stroke-linejoin="round"
        />
      </svg>